<?xml version="1.0" encoding="UTF-8"?> <svg xmlns="http://www.w3.org/2000/svg" xmlns:xlink="http://www.w3.org/1999/xlink" width="163.141" height="40" viewBox="0 0 163.141 40"><defs><style>.a{fill:none;}.b{clip-path:url(#a);}.c{fill:#fff;}.d{clip-path:url(#b);}.e{fill:url(#c);}.f{clip-path:url(#d);}.g{fill:url(#e);}.h{clip-path:url(#f);}.i{fill:url(#g);}</style><clipPath id="a"><rect class="a" width="163.136" height="40"></rect></clipPath><clipPath id="b"><path class="a" d="M184.831,15.575a2.023,2.023,0,0,0-2.213,1.644l-2.529,10.939-2.466-12.52h-4.869l-2.592,12.52-2.845-12.583H162.7l5,18.147H172.5l2.782-12.962,2.782,12.9h4.806l5-18.147Zm20.677,0h-.316a13.468,13.468,0,0,0-3.6.506,8.473,8.473,0,0,0-3.035,1.518,7.4,7.4,0,0,0-2.15,2.909A11.192,11.192,0,0,0,195.643,25v8.663h4.806V24.364a4.11,4.11,0,0,1,.948-2.972,3.984,3.984,0,0,1,2.909-.948h1.581V15.575Zm-16.25,0V33.659h4.806V17.851a2.34,2.34,0,0,0-2.34-2.34Zm22.89,4.489a3.351,3.351,0,0,1,2.466-.948,3.288,3.288,0,0,1,2.529.948,4.426,4.426,0,0,1,.948,2.719h-6.955a3.92,3.92,0,0,1,1.012-2.719m-3.794-2.4a10.25,10.25,0,0,0-2.087,6.829,10.815,10.815,0,0,0,2.15,7.019,7.647,7.647,0,0,0,6.07,2.529,8.726,8.726,0,0,0,5.311-1.581,7.461,7.461,0,0,0,2.845-4.363h-3.414a2.023,2.023,0,0,0-1.265.316,1.454,1.454,0,0,0-.506.569l-.379.379-.379.253a3.857,3.857,0,0,1-1.96.506,3.225,3.225,0,0,1-2.656-1.075,4.679,4.679,0,0,1-1.012-3.162H222.9a1.2,1.2,0,0,0,.063-.506v-.759a10.3,10.3,0,0,0-2.213-7.019,7.782,7.782,0,0,0-6.323-2.466,7.531,7.531,0,0,0-6.07,2.529M189.194,10.2v3.731H194V12.54a2.34,2.34,0,0,0-2.34-2.34Z" transform="translate(-162.7 -10.2)"></path></clipPath><radialGradient id="c" cx="0.798" cy="-0.179" r="1.511" gradientTransform="matrix(0.395, 0, 0, -1, -1.03, 2.819)" gradientUnits="objectBoundingBox"><stop offset="0" stop-color="#00a4e4"></stop><stop offset="0.05" stop-color="#00a4e4"></stop><stop offset="0.88" stop-color="#005596"></stop><stop offset="1" stop-color="#005596"></stop></radialGradient><clipPath id="d"><path class="a" d="M20.018,0a19.981,19.981,0,1,0,14.17,5.83A19.981,19.981,0,0,0,20.018,0Z" transform="translate(-0.1 0)"></path></clipPath><radialGradient id="e" cx="0.75" cy="0.503" r="0.5" gradientTransform="matrix(0.999, 0, 0, -1, 0, 2)" xlink:href="#c"></radialGradient><clipPath id="f"><path class="a" d="M29.349,17.833c-2.4.7-4.11,2.972-4.932,6.892-1.644,7.9-4.742,12.9-8.03,16.124h.443c3.288-3.225,6.323-8.283,7.967-16.124.822-3.731,2.34-6.007,4.679-6.639s7.272,1.454,10.56,3.92v-.443C37.253,19.54,33.9,17.58,30.93,17.58a5.944,5.944,0,0,0-1.581.19M29.286,16.5c-2.592.759-4.363,3.225-5.248,7.4-1.834,8.726-5.5,13.658-9.295,16.5l.443.126c3.731-2.909,7.4-7.9,9.168-16.5.822-3.984,2.529-6.386,5-7.145s7.4,1.138,10.623,3.478v-.443c-2.656-1.9-5.88-3.6-8.852-3.6a6.513,6.513,0,0,0-1.834.253M29.223,15.3c-2.782.822-4.616,3.541-5.564,7.9-1.96,9.611-6.513,14.353-10.686,16.63l.443.126c4.173-2.34,8.6-7.145,10.623-16.693.885-4.236,2.719-6.829,5.311-7.651s7.335.822,10.56,2.909v-.506c-2.529-1.644-5.628-3.035-8.473-3.035a7.145,7.145,0,0,0-2.087.316m0-1.265c-2.972.948-4.932,3.794-5.944,8.473-1.834,8.41-6.133,14.164-12.393,16.44l.379.19c6.2-2.4,10.433-8.157,12.267-16.63.948-4.553,2.845-7.272,5.691-8.22s7.082.443,10.18,2.276l-.126-.506A16.554,16.554,0,0,0,31.626,13.6a7.777,7.777,0,0,0-2.4.379m0-1.328c-3.1,1.075-5.248,4.11-6.26,9.042-1.707,7.967-5.564,13.152-11.508,15.3a17.326,17.326,0,0,1-2.529.7l.379.253,2.276-.632a16.25,16.25,0,0,0,7.145-5.122,25.188,25.188,0,0,0,4.616-10.433c.948-4.236,3.035-7.777,6.07-8.789s6.639.063,9.611,1.518l-.19-.506a16.25,16.25,0,0,0-6.766-1.77,8.473,8.473,0,0,0-2.782.443m0-1.328c-3.288,1.2-5.5,4.426-6.639,9.611-1.581,7.4-5.185,12.14-10.749,14.164a17.958,17.958,0,0,1-5.058,1.012l.379.316a18.02,18.02,0,0,0,4.806-1.012c5.691-2.087,9.358-6.892,10.876-14.353,1.075-5.058,3.225-8.22,6.386-9.358s6.007-.316,8.726.759l-.253-.443a15.871,15.871,0,0,0-5.438-1.2,9.042,9.042,0,0,0-3.1.506m0-1.391c-3.478,1.328-5.817,4.806-7.019,10.243C20.813,26.875,17.462,31.3,12.34,33.2a18.527,18.527,0,0,1-7.4,1.012l.316.379a18.716,18.716,0,0,0,7.208-1.012c5.248-1.96,8.663-6.386,10.117-13.278,1.138-5.375,3.414-8.726,6.766-9.99s5.122-.632,7.588.063l-.253-.443a15.176,15.176,0,0,0-3.92-.569,9.8,9.8,0,0,0-3.541.632m0-1.391c-3.667,1.454-6.133,5.122-7.335,10.876s-4.426,10.18-9.168,11.951a19.285,19.285,0,0,1-9.358.7l.253.379a19.412,19.412,0,0,0,9.232-.759c4.869-1.77,8.03-5.88,9.358-12.2s3.6-9.232,7.145-10.686a11.571,11.571,0,0,1,6.133-.506l-.316-.379-1.96-.126a10.623,10.623,0,0,0-3.984.759m0-1.391c-3.857,1.644-6.45,5.5-7.714,11.571s-4.047,9.295-8.41,10.876-7.651,1.012-11,.316l.19.379a20.2,20.2,0,0,0,10.939-.379c3.6-1.328,7.4-5.375,8.6-11.129s3.794-9.738,7.524-11.318A11.255,11.255,0,0,1,33.839,6.7l-.379-.316a11.445,11.445,0,0,0-4.3.885m0-1.454c-4.047,1.834-6.766,5.944-8.094,12.267-1.075,5.122-3.667,8.473-7.651,9.927s-7.9.885-12.2-.253l.126.443c3.667.948,8.283,1.581,12.267.126s6.766-4.932,7.841-10.18c1.328-6.2,3.984-10.243,7.9-12.014a11.255,11.255,0,0,1,2.845-.822l-.379-.379a11.445,11.445,0,0,0-2.592.822m0-1.454c-4.236,2.023-7.082,6.386-8.473,12.962-.948,4.616-3.288,7.651-6.955,8.979S5.258,27.065.579,25.61v.379c3.92,1.2,8.979,2.15,13.215.632s6.2-4.489,7.145-9.232c1.518-6.513,4.3-10.812,8.41-12.773l1.2-.506-.379-.253-.948.443M20.371,16.568c-.885,4.173-2.972,6.892-6.323,8.157S5.006,25.294.2,23.524V23.9c4.806,1.707,9.927,2.529,13.911,1.075s5.628-4.11,6.513-8.41C22.078,9.992,24.923,5.5,29.1,3.29l-.379-.19c-4.11,2.276-6.955,6.829-8.346,13.468" transform="translate(-0.2 -3.1)"></path></clipPath><radialGradient id="g" cx="0.78" cy="0.452" r="0.568" gradientTransform="matrix(0.948, 0, 0, -1, 0, 2.014)" gradientUnits="objectBoundingBox"><stop offset="0" stop-color="#7dc7ef"></stop><stop offset="0.27" stop-color="#7dc7ef"></stop><stop offset="0.33" stop-color="#78c5ef"></stop><stop offset="0.41" stop-color="#68c1ed"></stop><stop offset="0.49" stop-color="#4ebaeb"></stop><stop offset="0.58" stop-color="#2ab0e8"></stop><stop offset="0.66" stop-color="#00a4e4"></stop><stop offset="0.71" stop-color="#009fdf"></stop><stop offset="0.78" stop-color="#008fcf"></stop><stop offset="0.85" stop-color="#0075b6"></stop><stop offset="0.91" stop-color="#005596"></stop><stop offset="1" stop-color="#005596"></stop></radialGradient></defs><g transform="translate(81.57 20)"><g transform="translate(-81.57 -20)"><g class="b" transform="translate(0 0)"><path class="c" d="M83.414,35.831a8.41,8.41,0,0,1-3.035.948l-2.845.19a7.145,7.145,0,0,1-4.3-1.328Q71.4,34.314,71.4,31.215t1.644-4.173A9.674,9.674,0,0,1,77.28,25.4l.822-.126,1.075-.19q3.035-.379,3.035-1.77a1.265,1.265,0,0,0-1.075-1.328,7.019,7.019,0,0,0-1.96-.316,5,5,0,0,0-1.707.253A1.834,1.834,0,0,0,76.4,23.058H71.843a5.248,5.248,0,0,1,1.9-3.478A7.959,7.959,0,0,1,78.988,18a12.206,12.206,0,0,1,5.754,1.265,4.363,4.363,0,0,1,1.96,3.794v6.2a7.841,7.841,0,0,1-1.012,4.236,6.07,6.07,0,0,1-2.34,2.213m-1.075-8.283a12.9,12.9,0,0,1-2.656.885l-1.581.316a4.047,4.047,0,0,0-1.77.885,2.782,2.782,0,0,0-.506,1.518A2.213,2.213,0,0,0,76.4,32.67a2.592,2.592,0,0,0,1.77.569,3.794,3.794,0,0,0,4.11-4.11Z" transform="translate(-26.253 -6.618)"></path><path class="c" d="M98.6,10.2h2.466a2.276,2.276,0,0,1,1.644.632,2.15,2.15,0,0,1,.7,1.581V33.721H98.6Z" transform="translate(-36.254 -3.75)"></path><path class="c" d="M120.414,35.794a8.41,8.41,0,0,1-3.035.948l-2.845.19a7.145,7.145,0,0,1-4.3-1.328q-1.834-1.328-1.834-4.426t1.644-4.11a9.674,9.674,0,0,1,4.3-1.644l.822-.126,1.075-.19q2.972-.379,3.035-1.77A1.265,1.265,0,0,0,118.2,22.01a7.019,7.019,0,0,0-1.96-.316,5,5,0,0,0-1.707.253,1.834,1.834,0,0,0-1.075,1.012h-4.553a5.248,5.248,0,0,1,1.9-3.478,7.807,7.807,0,0,1,5.248-1.581,11.972,11.972,0,0,1,5.754,1.265,4.363,4.363,0,0,1,1.96,3.794v6.2a7.841,7.841,0,0,1-1.012,4.236,6.007,6.007,0,0,1-2.34,2.213m-1.075-8.41a12.9,12.9,0,0,1-2.656.885L115.1,28.4a4.047,4.047,0,0,0-1.77.885,2.782,2.782,0,0,0-.506,1.518,2.213,2.213,0,0,0,.632,1.644,2.592,2.592,0,0,0,1.77.569,3.794,3.794,0,0,0,4.11-4.11Z" transform="translate(-39.858 -6.582)"></path><path class="c" d="M151.034,36.59h-2.4a2.213,2.213,0,0,1-2.34-2.34V24.955a2.782,2.782,0,0,0-1.012-2.4,3.6,3.6,0,0,0-2.213-.759,3.415,3.415,0,0,0-2.213.759,2.845,2.845,0,0,0-.948,2.4V36.59H135.1V25.9q0-4.616,2.4-6.2A10.623,10.623,0,0,1,142.877,18a10.307,10.307,0,0,1,5.5,1.581q2.529,1.581,2.529,6.323Z" transform="translate(-49.675 -6.618)"></path></g><g class="d" transform="translate(102.877 6.45)"><rect class="e" width="60.259" height="23.8"></rect></g><g class="f" transform="translate(0.063)"><rect class="g" width="40.025" height="40" transform="translate(-0.063 0)"></rect></g><g class="h" transform="translate(0.126 1.96)"><rect class="i" width="39.835" height="37.78" transform="translate(0 0)"></rect></g><g class="b" transform="translate(0 0)"><path class="c" d="M35.886,21.757,29.816,32.19,23.809,21.757H20.394l3.92,6.639L22.228,32,14.577,19.291a3.351,3.351,0,0,0-.822-.948,1.96,1.96,0,0,0-1.138-.443,2.023,2.023,0,0,0-1.2.506,3.478,3.478,0,0,0-.822.948L2.5,33.708H5.851L12.49,21.694l2.592,4.173h-3.92L9.582,28.333h6.955l3.857,6.639Q21.28,36.3,22.1,36.3t1.644-1.391l2.213-3.667,2.15,3.667q.822,1.391,1.644,1.391T31.4,34.909l7.9-13.152Z" transform="translate(-0.919 -6.582)"></path></g></g></g></svg> 