<?xml version="1.0" encoding="UTF-8"?> <svg xmlns="http://www.w3.org/2000/svg" xmlns:xlink="http://www.w3.org/1999/xlink" width="183.533" height="45" viewBox="0 0 183.533 45"><defs><style>.a{fill:none;}.b{clip-path:url(#a);}.c{fill:#231f20;}.d{clip-path:url(#b);}.e{fill:url(#c);}.f{clip-path:url(#d);}.g{fill:url(#e);}.h{clip-path:url(#f);}.i{fill:url(#g);}.j{fill:#fff;}</style><clipPath id="a"><rect class="a" width="183.528" height="45"></rect></clipPath><clipPath id="b"><path class="a" d="M187.6,16.246a2.276,2.276,0,0,0-2.49,1.85L182.262,30.4l-2.774-14.085H174.01L171.094,30.4l-3.2-14.156H162.7l5.62,20.416h5.406l3.13-14.583,3.13,14.512h5.406l5.62-20.416Zm23.261,0H210.5a15.152,15.152,0,0,0-4.055.569,9.532,9.532,0,0,0-3.414,1.707,8.323,8.323,0,0,0-2.419,3.272,12.591,12.591,0,0,0-.854,5.051v9.745h5.406V26.134a4.624,4.624,0,0,1,1.067-3.343,4.481,4.481,0,0,1,3.272-1.067h1.778V16.246Zm-18.282,0V36.591h5.406V18.807a2.632,2.632,0,0,0-2.632-2.632ZM218.327,21.3A3.77,3.77,0,0,1,221.1,20.23a3.7,3.7,0,0,1,2.845,1.067,4.979,4.979,0,0,1,1.067,3.059h-7.825a4.41,4.41,0,0,1,1.138-3.059m-4.268-2.7q-2.347,2.774-2.347,7.683a12.167,12.167,0,0,0,2.419,7.9,8.6,8.6,0,0,0,6.829,2.845,9.817,9.817,0,0,0,5.975-1.778,8.394,8.394,0,0,0,3.2-4.908h-3.841a2.276,2.276,0,0,0-1.423.356,1.636,1.636,0,0,0-.569.64l-.427.427-.427.285a4.339,4.339,0,0,1-2.205.569,3.628,3.628,0,0,1-2.988-1.209,5.264,5.264,0,0,1-1.138-3.557h13.3a1.351,1.351,0,0,0,.071-.569v-.854q0-5.051-2.49-7.9a8.755,8.755,0,0,0-7.113-2.774,8.472,8.472,0,0,0-6.829,2.845M192.505,10.2v4.2h5.406V12.832A2.632,2.632,0,0,0,195.28,10.2Z" transform="translate(-162.7 -10.2)"></path></clipPath><radialGradient id="c" cx="0.798" cy="-0.179" r="1.511" gradientTransform="matrix(0.395, 0, 0, -1, -1.03, 2.819)" gradientUnits="objectBoundingBox"><stop offset="0" stop-color="#00a4e4"></stop><stop offset="0.05" stop-color="#00a4e4"></stop><stop offset="0.88" stop-color="#005596"></stop><stop offset="1" stop-color="#005596"></stop></radialGradient><clipPath id="d"><path class="a" d="M22.507,0A22.479,22.479,0,1,0,38.448,6.559,22.479,22.479,0,0,0,22.507,0Z" transform="translate(-0.1 0)"></path></clipPath><radialGradient id="e" cx="0.75" cy="0.503" r="0.5" gradientTransform="matrix(0.999, 0, 0, -1, 0, 2)" xlink:href="#c"></radialGradient><clipPath id="f"><path class="a" d="M32.993,19.674c-2.7.782-4.624,3.343-5.549,7.754C25.6,36.32,22.11,41.94,18.411,45.567h.5c3.7-3.628,7.113-9.319,8.963-18.139.925-4.2,2.632-6.758,5.264-7.469s8.181,1.636,11.88,4.41v-.5c-3.13-2.276-6.9-4.481-10.243-4.481a6.687,6.687,0,0,0-1.778.213m-.071-1.423c-2.917.854-4.908,3.628-5.9,8.323C24.955,36.32,20.829,41.868,16.561,45.07l.5.142c4.2-3.272,8.323-8.892,10.315-18.566.925-4.481,2.845-7.185,5.62-8.038s8.323,1.28,11.951,3.912v-.5c-2.988-2.134-6.616-4.055-9.959-4.055a7.327,7.327,0,0,0-2.063.285m-.071-1.423c-3.13.925-5.193,3.984-6.26,8.892-2.205,10.812-7.327,16.148-12.022,18.708l.5.142c4.695-2.632,9.674-8.038,11.951-18.78,1-4.766,3.059-7.683,5.975-8.607s8.252.925,11.88,3.272v-.569c-2.845-1.85-6.331-3.414-9.532-3.414a8.038,8.038,0,0,0-2.347.356m0-1.423c-3.343,1.067-5.549,4.268-6.687,9.532-2.063,9.461-6.9,15.934-13.942,18.5l.427.213c6.971-2.7,11.737-9.176,13.8-18.708,1.067-5.122,3.2-8.181,6.4-9.248s7.967.5,11.453,2.561l-.142-.569a18.624,18.624,0,0,0-8.75-2.774,8.75,8.75,0,0,0-2.7.427m0-1.494c-3.486,1.209-5.9,4.624-7.042,10.172-1.921,8.963-6.26,14.8-12.947,17.215a19.492,19.492,0,0,1-2.845.782l.427.285L13,41.584a18.282,18.282,0,0,0,8.038-5.762,28.337,28.337,0,0,0,5.193-11.737c1.067-4.766,3.414-8.75,6.829-9.888s7.469.071,10.812,1.707l-.213-.569a18.282,18.282,0,0,0-7.611-1.992,9.532,9.532,0,0,0-3.13.5m0-1.494c-3.7,1.352-6.189,4.979-7.469,10.812C23.674,31.483,19.62,36.818,13.36,39.094a20.2,20.2,0,0,1-5.691,1.138l.427.356A20.273,20.273,0,0,0,13.5,39.45C19.9,37.1,24.03,31.7,25.737,23.3c1.209-5.691,3.628-9.248,7.185-10.528s6.758-.356,9.817.854l-.285-.5a17.855,17.855,0,0,0-6.118-1.352,10.172,10.172,0,0,0-3.486.569m0-1.565c-3.912,1.494-6.544,5.406-7.9,11.524-1.565,7.54-5.335,12.52-11.1,14.654A20.843,20.843,0,0,1,5.535,38.1l.356.427A21.056,21.056,0,0,0,14,37.387c5.9-2.205,9.745-7.185,11.382-14.938,1.28-6.046,3.841-9.817,7.611-11.239s5.762-.711,8.536.071l-.285-.5a17.072,17.072,0,0,0-4.41-.64,11.026,11.026,0,0,0-3.984.711m0-1.565c-4.126,1.636-6.9,5.762-8.252,12.235S19.62,32.977,14.285,34.968a21.7,21.7,0,0,1-10.528.782l.285.427a21.838,21.838,0,0,0,10.386-.854C19.9,33.332,23.461,28.709,24.955,21.6S29.01,11.209,32.993,9.573A13.018,13.018,0,0,1,39.893,9l-.356-.427-2.205-.142a11.951,11.951,0,0,0-4.481.854m0-1.565c-4.339,1.85-7.256,6.189-8.678,13.018S19.62,31.2,14.712,32.977,6.1,34.115,2.334,33.332l.213.427c3.77.782,8.252,1.067,12.306-.427s8.323-6.046,9.674-12.52S28.8,9.858,32.993,8.079a12.662,12.662,0,0,1,5.051-.925L37.617,6.8a12.875,12.875,0,0,0-4.837,1m0-1.636c-4.553,2.063-7.611,6.687-9.105,13.8-1.209,5.762-4.126,9.532-8.607,11.168s-8.892,1-13.729-.285l.142.5c4.126,1.067,9.319,1.778,13.8.142S22.892,25.934,24.1,20.03C25.6,13.059,28.583,8.506,32.993,6.514a12.662,12.662,0,0,1,3.2-.925l-.427-.427a12.875,12.875,0,0,0-2.917.925m0-1.636c-4.766,2.276-7.967,7.185-9.532,14.583-1.067,5.193-3.7,8.607-7.825,10.1s-9.6.925-14.867-.711v.427c4.41,1.352,10.1,2.419,14.867.711s6.971-5.051,8.038-10.386c1.707-7.327,4.837-12.164,9.461-14.369l1.352-.569-.427-.285-1.067.5m-9.959,13.8c-1,4.695-3.343,7.754-7.113,9.176S5.606,28.068.2,26.077V26.5c5.406,1.921,11.168,2.845,15.65,1.209s6.331-4.624,7.327-9.461c1.636-7.4,4.837-12.449,9.532-14.938L32.282,3.1c-4.624,2.561-7.825,7.683-9.39,15.152" transform="translate(-0.2 -3.1)"></path></clipPath><radialGradient id="g" cx="0.78" cy="0.452" r="0.568" gradientTransform="matrix(0.948, 0, 0, -1, 0, 2.014)" gradientUnits="objectBoundingBox"><stop offset="0" stop-color="#7dc7ef"></stop><stop offset="0.27" stop-color="#7dc7ef"></stop><stop offset="0.33" stop-color="#78c5ef"></stop><stop offset="0.41" stop-color="#68c1ed"></stop><stop offset="0.49" stop-color="#4ebaeb"></stop><stop offset="0.58" stop-color="#2ab0e8"></stop><stop offset="0.66" stop-color="#00a4e4"></stop><stop offset="0.71" stop-color="#009fdf"></stop><stop offset="0.78" stop-color="#008fcf"></stop><stop offset="0.85" stop-color="#0075b6"></stop><stop offset="0.91" stop-color="#005596"></stop><stop offset="1" stop-color="#005596"></stop></radialGradient></defs><g transform="translate(91.767 22.5)"><g transform="translate(-91.767 -22.5)"><g class="b" transform="translate(0 0)"><path class="c" d="M84.916,38.06A9.461,9.461,0,0,1,81.5,39.127l-3.2.213a8.038,8.038,0,0,1-4.837-1.494Q71.4,36.353,71.4,32.867t1.85-4.695a10.884,10.884,0,0,1,4.766-1.85l.925-.142,1.209-.213q3.414-.427,3.414-1.992a1.423,1.423,0,0,0-1.209-1.494,7.9,7.9,0,0,0-2.205-.356,5.62,5.62,0,0,0-1.921.285,2.063,2.063,0,0,0-1.209,1.28H71.9a5.9,5.9,0,0,1,2.134-3.912A8.954,8.954,0,0,1,79.936,18a13.731,13.731,0,0,1,6.473,1.423,4.908,4.908,0,0,1,2.205,4.268v6.971a8.821,8.821,0,0,1-1.138,4.766,6.829,6.829,0,0,1-2.632,2.49M83.635,28.6a14.512,14.512,0,0,1-2.988,1l-1.778.356a4.553,4.553,0,0,0-1.992,1,3.13,3.13,0,0,0-.569,1.707,2.49,2.49,0,0,0,.711,1.85,2.917,2.917,0,0,0,1.992.64,4.268,4.268,0,0,0,4.624-4.624Z" transform="translate(-20.61 -5.196)"></path><path class="c" d="M98.6,10.2h2.774a2.561,2.561,0,0,1,1.85.711,2.419,2.419,0,0,1,.782,1.778V36.662H98.6Z" transform="translate(-28.461 -2.944)"></path><path class="c" d="M121.916,38.031A9.461,9.461,0,0,1,118.5,39.1l-3.2.213a8.038,8.038,0,0,1-4.837-1.494q-2.063-1.494-2.063-4.979t1.85-4.624a10.884,10.884,0,0,1,4.837-1.85l.925-.142,1.209-.213q3.343-.427,3.414-1.992a1.423,1.423,0,0,0-1.209-1.494,7.9,7.9,0,0,0-2.205-.356,5.62,5.62,0,0,0-1.921.285,2.063,2.063,0,0,0-1.209,1.138h-5.122a5.9,5.9,0,0,1,2.134-3.912,8.782,8.782,0,0,1,5.9-1.778,13.468,13.468,0,0,1,6.473,1.423,4.908,4.908,0,0,1,2.205,4.268v6.971a8.821,8.821,0,0,1-1.138,4.766,6.758,6.758,0,0,1-2.632,2.49m-1.209-9.461a14.512,14.512,0,0,1-2.988,1l-1.778.356a4.553,4.553,0,0,0-1.992,1,3.13,3.13,0,0,0-.569,1.707,2.49,2.49,0,0,0,.711,1.85,2.917,2.917,0,0,0,1.992.64,4.268,4.268,0,0,0,4.624-4.624Z" transform="translate(-31.29 -5.167)"></path><path class="c" d="M153.026,38.914h-2.7a2.49,2.49,0,0,1-2.632-2.632V25.825a3.13,3.13,0,0,0-1.138-2.7,4.055,4.055,0,0,0-2.49-.854,3.841,3.841,0,0,0-2.49.854,3.2,3.2,0,0,0-1.067,2.7V38.914H135.1V26.892q0-5.193,2.7-6.971A11.951,11.951,0,0,1,143.85,18a11.6,11.6,0,0,1,6.189,1.778q2.845,1.778,2.845,7.113Z" transform="translate(-38.997 -5.196)"></path></g><g class="d" transform="translate(115.736 7.256)"><rect class="e" width="67.791" height="26.775"></rect></g><g class="f" transform="translate(0.071)"><rect class="g" width="45.028" height="45" transform="translate(-0.071 0)"></rect></g><g class="h" transform="translate(0.142 2.205)"><rect class="i" width="44.815" height="42.503" transform="translate(0 0)"></rect></g><g class="b" transform="translate(0 0)"><path class="j" d="M40.059,22.239,33.23,33.976,26.472,22.239H22.631l4.41,7.469-2.347,4.055-8.607-14.3a3.77,3.77,0,0,0-.925-1.067,2.205,2.205,0,0,0-1.28-.5,2.276,2.276,0,0,0-1.352.569,3.912,3.912,0,0,0-.925,1.067L2.5,35.684H6.27l7.469-13.516,2.917,4.695h-4.41l-1.778,2.774h7.825l4.339,7.469q1,1.494,1.921,1.494t1.85-1.565l2.49-4.126,2.419,4.126q.925,1.565,1.85,1.565t1.85-1.565l8.892-14.8Z" transform="translate(-0.722 -5.167)"></path></g></g></g></svg> 