<svg xmlns="http://www.w3.org/2000/svg" xmlns:xlink="http://www.w3.org/1999/xlink" width="800" zoomAndPan="magnify" viewBox="0 0 600 449.999984" height="600" preserveAspectRatio="xMidYMid meet" version="1.0"><defs><clipPath id="id1"><path d="M 0 6.816406 L 600 6.816406 L 600 443.316406 L 0 443.316406 Z M 0 6.816406 " clip-rule="nonzero"/></clipPath></defs><g clip-path="url(#id1)"><path fill="rgb(0%, 0%, 0%)" d="M 518.179688 115.941406 L 436.363281 115.941406 L 436.363281 6.816406 L 54.546875 6.816406 C 24.410156 6.816406 0.00390625 31.234375 0.00390625 61.378906 L 0.00390625 361.472656 L 54.546875 361.472656 C 54.546875 406.625 91.230469 443.316406 136.367188 443.316406 C 181.5 443.316406 218.183594 406.625 218.183594 361.472656 L 381.816406 361.472656 C 381.816406 406.625 418.5 443.316406 463.632812 443.316406 C 508.769531 443.316406 545.453125 406.625 545.453125 361.472656 L 599.996094 361.472656 L 599.996094 225.066406 Z M 136.367188 402.394531 C 113.730469 402.394531 95.457031 384.117188 95.457031 361.472656 C 95.457031 338.832031 113.730469 320.550781 136.367188 320.550781 C 159 320.550781 177.273438 338.832031 177.273438 361.472656 C 177.273438 384.117188 159 402.394531 136.367188 402.394531 Z M 504.542969 156.863281 L 558.132812 225.066406 L 436.363281 225.066406 L 436.363281 156.863281 Z M 463.632812 402.394531 C 441 402.394531 422.726562 384.117188 422.726562 361.472656 C 422.726562 338.832031 441 320.550781 463.632812 320.550781 C 486.269531 320.550781 504.542969 338.832031 504.542969 361.472656 C 504.542969 384.117188 486.269531 402.394531 463.632812 402.394531 Z M 463.632812 402.394531 " fill-opacity="1" fill-rule="nonzero"/></g></svg>